<svg fill="#000" xmlns="http://www.w3.org/2000/svg" viewBox="0 0 32 32" x="0px" y="0px"><g><path d="M25,9H21v2h4a5,5,0,0,1,0,10H21.123a1.717,1.717,0,0,1-1.668-1.3,3.561,3.561,0,0,0-6.91,0A1.717,1.717,0,0,1,10.877,21H7A5,5,0,0,1,7,11h4V9H7A7,7,0,0,0,7,23h3.877a3.714,3.714,0,0,0,3.608-2.817,1.561,1.561,0,0,1,3.03,0A3.714,3.714,0,0,0,21.123,23H25A7,7,0,0,0,25,9Z"></path><rect x="6" y="15" width="4" height="2"></rect><rect x="22" y="15" width="4" height="2"></rect><rect x="13" y="9" width="2" height="2"></rect><rect x="17" y="9" width="2" height="2"></rect></g></svg>